<svg width="1215" height="327" viewBox="0 0 1215 327" fill="none" xmlns="http://www.w3.org/2000/svg">
<path fill-rule="evenodd" clip-rule="evenodd" d="M1162 229C1137.69 229 1118 248.69 1118 273C1118 292.47 1130.6 308.915 1148.09 314.745C1150.28 315.13 1151.11 313.81 1151.11 312.655C1151.11 311.61 1151.06 308.145 1151.06 304.46C1140 306.495 1137.14 301.765 1136.26 299.29C1135.77 298.025 1133.62 294.12 1131.75 293.075C1130.21 292.25 1128.01 290.215 1131.69 290.16C1135.16 290.105 1137.64 293.35 1138.46 294.67C1142.42 301.325 1148.75 299.455 1151.28 298.3C1151.66 295.44 1152.82 293.515 1154.08 292.415C1144.29 291.315 1134.06 287.52 1134.06 270.69C1134.06 265.905 1135.77 261.945 1138.57 258.865C1138.13 257.765 1136.59 253.255 1139.01 247.205C1139.01 247.205 1142.69 246.05 1151.11 251.715C1154.63 250.725 1158.37 250.23 1162.11 250.23C1165.85 250.23 1169.59 250.725 1173.11 251.715C1181.53 245.995 1185.21 247.205 1185.21 247.205C1187.63 253.255 1186.09 257.765 1185.65 258.865C1188.46 261.945 1190.16 265.85 1190.16 270.69C1190.16 287.575 1179.88 291.315 1170.08 292.415C1171.68 293.79 1173.06 296.43 1173.06 300.555C1173.06 306.44 1173 311.17 1173 312.655C1173 313.81 1173.83 315.185 1176.03 314.745C1184.76 311.796 1192.35 306.182 1197.73 298.694C1203.1 291.205 1206 282.219 1206 273C1206 248.69 1186.31 229 1162 229Z" fill="black"/>
<g clip-path="url(#clip0_2005_2507)">
<path d="M582.02 247.822L536.176 201.98C533.537 199.34 529.255 199.34 526.613 201.98L517.094 211.5L529.17 223.576C531.976 222.628 535.194 223.264 537.431 225.501C539.679 227.753 540.311 230.998 539.339 233.813L550.978 245.452C553.793 244.482 557.042 245.11 559.291 247.362C562.434 250.504 562.434 255.596 559.291 258.74C556.147 261.884 551.055 261.884 547.91 258.74C545.545 256.373 544.961 252.901 546.158 249.989L535.305 239.135L535.303 267.697C536.09 268.086 536.809 268.6 537.431 269.219C540.574 272.361 540.574 277.453 537.431 280.6C534.287 283.742 529.193 283.742 526.054 280.6C522.911 277.453 522.911 272.361 526.054 269.219C526.807 268.466 527.702 267.869 528.687 267.463V238.635C527.7 238.232 526.805 237.635 526.054 236.879C523.672 234.501 523.1 231.007 524.32 228.083L512.415 216.178L480.981 247.61C478.34 250.252 478.34 254.535 480.981 257.176L526.826 303.018C529.465 305.658 533.746 305.658 536.389 303.018L582.019 257.388C584.66 254.747 584.66 250.462 582.019 247.822" fill="#DE4C36"/>
</g>
<g clip-path="url(#clip1_2005_2507)">
<path d="M765.906 41.7027C764.703 41.2887 763.49 40.9051 762.269 40.5523C762.474 39.7106 762.663 38.8792 762.831 38.0623C765.584 24.6483 763.784 13.8418 757.636 10.2837C751.742 6.87278 742.102 10.4295 732.366 18.9334C731.406 19.773 730.468 20.6368 729.552 21.524C728.939 20.934 728.315 20.3556 727.68 19.7888C717.477 10.6962 707.249 6.86392 701.108 10.4321C695.219 13.8537 693.475 24.0127 695.954 36.7254C696.2 37.9844 696.479 39.237 696.789 40.4819C695.341 40.8947 693.944 41.3342 692.607 41.8019C680.644 45.9881 673.005 52.5483 673.005 59.3529C673.005 66.3808 681.206 73.43 693.666 77.7043C694.676 78.0495 695.695 78.3692 696.721 78.6634C696.388 80.0042 696.092 81.354 695.834 82.7114C693.471 95.2035 695.316 105.122 701.189 108.522C707.255 112.033 717.437 108.425 727.351 99.7268C728.154 99.0196 728.941 98.2925 729.708 97.546C730.7 98.5066 731.719 99.4393 732.763 100.343C742.366 108.636 751.85 111.985 757.718 108.576C763.778 105.055 765.748 94.3995 763.191 81.4356C762.989 80.42 762.763 79.4094 762.513 78.4047C763.228 78.1921 763.93 77.9732 764.614 77.7455C777.567 73.4384 785.995 66.4747 785.995 59.3529C785.995 52.5234 778.109 45.919 765.906 41.7027ZM763.096 73.1474C762.478 73.3525 761.844 73.5505 761.198 73.7432C759.768 69.1995 757.839 64.3684 755.477 59.3764C757.73 54.5036 759.586 49.734 760.976 45.22C762.132 45.5558 763.253 45.9097 764.335 46.2832C774.791 49.8961 781.169 55.2372 781.169 59.3529C781.169 63.7367 774.281 69.4277 763.096 73.1474ZM758.456 82.3765C759.586 88.1087 759.748 93.2916 758.999 97.3435C758.326 100.984 756.973 103.412 755.299 104.384C751.738 106.453 744.124 103.764 735.911 96.6706C734.94 95.8305 733.993 94.9634 733.07 94.0703C736.254 90.5756 739.436 86.5131 742.541 82.0008C748.004 81.5144 753.164 80.7188 757.844 79.6331C758.069 80.5426 758.273 81.4573 758.456 82.3765ZM711.526 104.026C708.047 105.259 705.276 105.295 703.601 104.325C700.037 102.262 698.555 94.298 700.576 83.6151C700.816 82.3527 701.092 81.0972 701.401 79.8502C706.029 80.8779 711.152 81.6168 716.628 82.0624C719.754 86.4776 723.028 90.5358 726.327 94.0894C725.626 94.7703 724.908 95.4338 724.174 96.0793C719.79 99.9252 715.397 102.654 711.526 104.026ZM695.228 73.1204C689.718 71.2302 685.168 68.7738 682.049 66.0933C679.247 63.6848 677.832 61.2932 677.832 59.3529C677.832 55.2234 683.966 49.9564 694.196 46.3766C695.438 45.9425 696.737 45.5327 698.086 45.1482C699.5 49.7641 701.354 54.5904 703.593 59.4707C701.325 64.4233 699.444 69.3267 698.016 73.997C697.08 73.7278 696.15 73.4355 695.228 73.1204ZM700.691 35.7947C698.568 24.9031 699.978 16.6871 703.527 14.625C707.307 12.4287 715.665 15.5601 724.475 23.4115C725.05 23.9247 725.615 24.4482 726.171 24.9819C722.888 28.52 719.644 32.548 716.545 36.9371C711.231 37.4315 706.145 38.2253 701.468 39.2889C701.18 38.131 700.921 36.9661 700.691 35.7951V35.7947ZM749.43 47.8739C748.325 45.9589 747.18 44.0679 745.994 42.2024C749.599 42.66 753.053 43.2673 756.297 44.0098C755.323 47.1425 754.109 50.4175 752.681 53.7753C751.636 51.7867 750.553 49.8191 749.43 47.8739ZM729.554 28.4443C731.781 30.8652 734.01 33.5678 736.204 36.5003C731.755 36.2894 727.298 36.2886 722.849 36.4977C725.044 33.5922 727.293 30.8931 729.554 28.4443ZM709.551 47.9071C708.442 49.8367 707.379 51.792 706.361 53.7713C704.956 50.4255 703.753 47.1355 702.771 43.9584C705.995 43.2346 709.433 42.6427 713.015 42.1935C711.816 44.0704 710.661 45.9754 709.551 47.9067V47.9071ZM713.118 76.8569C709.417 76.4423 705.927 75.881 702.704 75.1767C703.702 71.9429 704.931 68.5829 706.367 65.1653C707.389 67.1461 708.457 69.1026 709.57 71.033C710.715 73.0176 711.9 74.9614 713.118 76.8569ZM729.688 90.6027C727.4 88.1255 725.118 85.3848 722.889 82.4372C725.053 82.5222 727.258 82.5656 729.5 82.5656C731.803 82.5656 734.08 82.5138 736.321 82.4137C734.12 85.4145 731.899 88.1592 729.688 90.6027ZM752.726 64.9907C754.237 68.446 755.51 71.7883 756.52 74.9667C753.244 75.7171 749.707 76.3214 745.98 76.7701C747.175 74.8699 748.331 72.9461 749.449 70.9998C750.586 69.0214 751.678 67.0179 752.726 64.9907ZM745.268 68.5794C743.556 71.5634 741.749 74.4909 739.848 77.357C736.404 77.6018 732.952 77.7234 729.5 77.7216C725.984 77.7216 722.563 77.6118 719.27 77.3974C717.319 74.5378 715.477 71.6053 713.747 68.6059H713.748C712.026 65.6225 710.418 62.5745 708.926 59.4685C710.414 56.3618 712.017 53.3124 713.733 50.3267L713.733 50.3271C715.448 47.3407 717.275 44.4206 719.211 41.5734C722.571 41.3182 726.017 41.1853 729.5 41.1853H729.5C732.998 41.1853 736.449 41.3195 739.808 41.5765C741.724 44.4195 743.54 47.3295 745.252 50.301C746.974 53.2801 748.598 56.3147 750.123 59.3999C748.614 62.5166 746.994 65.5783 745.268 68.5794ZM755.225 14.4806C759.009 16.6707 760.48 25.5024 758.103 37.0842C757.951 37.8231 757.781 38.5757 757.595 39.339C752.907 38.2528 747.817 37.4452 742.487 36.9433C739.383 32.506 736.166 28.4717 732.936 24.9792C733.783 24.1604 734.649 23.3628 735.535 22.5871C743.877 15.3014 751.673 12.4247 755.225 14.4806ZM729.5 49.2263C735.072 49.2263 739.59 53.7603 739.59 59.3529C739.59 64.9456 735.072 69.4795 729.5 69.4795C723.928 69.4795 719.41 64.9456 719.41 59.3529C719.41 53.7603 723.928 49.2263 729.5 49.2263Z" fill="#00D8FF"/>
</g>
<g clip-path="url(#clip2_2005_2507)">
<path d="M350.673 268.077C346.603 268.097 343.065 269.069 340.104 270.506C339.016 268.372 337.93 266.471 337.738 265.076C337.525 263.449 337.269 262.456 337.525 260.512C337.781 258.568 338.931 255.8 338.91 255.589C338.889 255.378 338.654 254.385 336.31 254.364C333.966 254.342 331.941 254.807 331.707 255.42C331.472 256.033 331.025 257.427 330.727 258.864C330.322 260.977 326.039 268.52 323.588 272.471C322.799 270.929 322.117 269.576 321.968 268.499C321.755 266.872 321.499 265.879 321.755 263.935C322.011 261.991 323.162 259.223 323.14 259.012C323.119 258.801 322.884 257.807 320.54 257.787C318.196 257.765 316.171 258.23 315.937 258.843C315.703 259.456 315.447 260.892 314.957 262.287C314.467 263.682 308.777 276.275 307.285 279.528C306.682 280.845 306.05 282.149 305.389 283.438C305.389 283.438 305.367 283.501 305.303 283.607C305.095 284.011 304.882 284.412 304.664 284.811V284.832C304.344 285.403 304.003 285.931 303.833 285.931C303.705 285.931 303.471 284.41 303.876 282.339C304.728 277.965 306.752 271.162 306.731 270.929C306.731 270.802 307.115 269.619 305.41 269.006C303.748 268.393 303.151 269.407 303.002 269.407C302.853 269.407 302.746 269.767 302.746 269.767C302.746 269.767 304.6 262.118 299.209 262.118C295.842 262.118 291.196 265.773 288.894 269.069C286.278 270.481 283.664 271.897 281.052 273.317C279.795 274.014 278.495 274.711 277.28 275.366C277.195 275.282 277.11 275.176 277.024 275.091C270.503 268.182 258.442 263.301 258.953 254.026C259.145 250.645 260.317 241.77 282.118 230.995C300.061 222.226 314.339 224.655 316.811 230.044C320.348 237.735 309.161 252.018 290.62 254.089C283.546 254.871 279.837 252.166 278.9 251.152C277.92 250.095 277.77 250.032 277.408 250.243C276.811 250.561 277.195 251.511 277.408 252.06C277.962 253.497 280.242 256.033 284.099 257.28C287.509 258.378 295.799 258.991 305.836 255.145C317.067 250.835 325.847 238.855 323.268 228.818C320.689 218.634 303.641 215.274 287.509 220.958C277.92 224.339 267.52 229.663 260.04 236.594C251.154 244.834 249.747 251.997 250.322 254.998C252.39 265.647 267.201 272.577 273.125 277.711C272.826 277.88 272.549 278.029 272.315 278.155C269.353 279.613 258.058 285.466 255.245 291.657C252.049 298.672 255.757 303.701 258.208 304.376C265.815 306.469 273.636 302.708 277.834 296.495C282.032 290.283 281.521 282.212 279.582 278.514C279.56 278.472 279.539 278.43 279.496 278.387C280.264 277.944 281.052 277.479 281.819 277.035C283.23 276.209 284.658 275.413 286.103 274.647C285.378 276.613 284.845 278.958 284.59 282.339C284.27 286.311 285.911 291.466 288.063 293.495C289.022 294.383 290.152 294.404 290.876 294.404C293.391 294.404 294.521 292.333 295.778 289.882C297.312 286.882 298.697 283.395 298.697 283.395C298.697 283.395 296.971 292.819 301.66 292.819C303.364 292.819 305.09 290.621 305.858 289.502V289.523C305.858 289.523 305.9 289.459 305.986 289.311C306.156 289.037 306.262 288.867 306.262 288.867V288.826C306.944 287.642 308.479 284.959 310.759 280.5C313.7 274.753 316.534 267.57 316.534 267.57C316.534 267.57 316.79 269.323 317.663 272.239C318.175 273.951 319.24 275.831 320.093 277.648C319.411 278.599 318.985 279.127 318.985 279.127L319.006 279.148C318.452 279.866 317.855 280.648 317.195 281.409C314.872 284.156 312.102 287.305 311.718 288.213C311.27 289.29 311.377 290.072 312.23 290.706C312.848 291.171 313.955 291.234 315.085 291.171C317.174 291.023 318.644 290.516 319.368 290.199C320.498 289.798 321.819 289.185 323.055 288.276C325.335 286.607 326.72 284.219 326.593 281.071C326.529 279.339 325.953 277.606 325.25 275.979C325.463 275.683 325.655 275.387 325.868 275.091C329.469 269.872 332.261 264.146 332.261 264.146C332.261 264.146 332.517 265.9 333.391 268.816C333.817 270.295 334.691 271.901 335.458 273.464C332.069 276.19 329.981 279.359 329.235 281.43C327.893 285.276 328.937 287.008 330.919 287.41C331.813 287.6 333.092 287.177 334.03 286.776C335.223 286.396 336.63 285.741 337.972 284.768C340.253 283.1 342.447 280.775 342.32 277.627C342.256 276.19 341.872 274.774 341.339 273.401C344.216 272.218 347.924 271.563 352.655 272.112C362.799 273.295 364.802 279.571 364.418 282.212C364.035 284.853 361.904 286.29 361.201 286.734C360.497 287.178 360.263 287.325 360.327 287.642C360.412 288.107 360.753 288.086 361.35 288.001C362.181 287.854 366.678 285.867 366.869 281.007C367.189 274.796 361.222 268.013 350.673 268.077ZM272.421 294.235C269.054 297.869 264.366 299.242 262.342 298.08C260.168 296.833 261.02 291.466 265.155 287.621C267.669 285.276 270.908 283.099 273.061 281.768C273.551 281.472 274.276 281.05 275.149 280.522C275.298 280.437 275.384 280.395 275.384 280.395L275.895 280.078C277.408 285.571 275.959 290.41 272.421 294.235ZM296.929 277.711C295.756 280.543 293.306 287.79 291.814 287.389C290.535 287.051 289.747 281.557 291.558 276.127C292.475 273.401 294.414 270.147 295.543 268.88C297.376 266.851 299.401 266.174 299.89 266.999C300.509 268.077 297.653 275.937 296.929 277.711ZM317.152 287.304C316.662 287.558 316.193 287.727 315.98 287.6C315.831 287.515 316.193 287.177 316.193 287.177C316.193 287.177 318.729 284.473 319.731 283.247C320.306 282.529 320.988 281.684 321.713 280.733V281.007C321.713 284.241 318.558 286.417 317.152 287.304H317.152ZM332.751 283.776C332.389 283.522 332.453 282.677 333.667 280.036C334.136 279 335.244 277.268 337.141 275.599C337.354 276.275 337.504 276.93 337.482 277.542C337.461 281.621 334.52 283.142 332.751 283.776Z" fill="#CD6799"/>
</g>
<g clip-path="url(#clip3_2005_2507)">
<path d="M1127 75.7821C1127 81.9781 1132.08 87 1138.35 87H1203.65C1209.92 87 1215 81.9774 1215 75.7821V11.2182C1215 5.02187 1209.92 0 1203.65 0H1138.35C1132.08 0 1127 5.02255 1127 11.2179V75.7818V75.7821Z" fill="#563D7C"/>
<path d="M1163.49 38.4832V26.1629H1174.46C1175.51 26.1629 1176.51 26.2489 1177.48 26.4212C1178.45 26.5931 1179.31 26.9003 1180.06 27.3431C1180.8 27.786 1181.4 28.4007 1181.85 29.1875C1182.3 29.9746 1182.52 30.9829 1182.52 32.2121C1182.52 34.4255 1181.85 36.0241 1180.51 37.0076C1179.16 37.9915 1177.45 38.4832 1175.36 38.4832H1163.49ZM1151.78 17.1621V69.8379H1177.6C1179.98 69.8379 1182.31 69.5429 1184.57 68.9526C1186.84 68.3623 1188.85 67.4525 1190.62 66.223C1192.38 64.9934 1193.79 63.407 1194.83 61.4645C1195.88 59.5216 1196.4 57.2222 1196.4 54.5663C1196.4 51.2709 1195.59 48.4553 1193.98 46.1192C1192.36 43.7828 1189.91 42.1474 1186.62 41.2129C1189.01 40.0819 1190.82 38.6307 1192.04 36.8601C1193.25 35.0895 1193.86 32.8765 1193.86 30.2203C1193.86 27.7612 1193.45 25.6956 1192.63 24.0232C1191.81 22.3512 1190.65 21.0108 1189.16 20.0025C1187.67 18.9942 1185.88 18.2686 1183.79 17.8262C1181.7 17.3833 1179.39 17.1621 1176.85 17.1621H1151.78ZM1163.49 60.8371V46.3771H1176.25C1178.79 46.3771 1180.83 46.9548 1182.37 48.111C1183.91 49.2668 1184.69 51.1971 1184.69 53.9023C1184.69 55.2797 1184.45 56.4107 1183.98 57.296C1183.5 58.1813 1182.87 58.8823 1182.07 59.3986C1181.28 59.9151 1180.36 60.2839 1179.31 60.5054C1178.27 60.7263 1177.17 60.8371 1176.03 60.8371H1163.49Z" fill="white"/>
</g>
<path d="M60.8438 252.084C64.6646 236.801 74.2167 229.159 89.5 229.159C112.425 229.159 115.291 246.353 126.753 249.219C134.395 251.129 141.081 248.264 146.812 240.622C142.992 255.905 133.44 263.547 118.156 263.547C95.2313 263.547 92.3656 246.353 80.9031 243.487C73.2615 241.577 66.575 244.443 60.8438 252.084ZM32.1875 286.472C36.0083 271.189 45.5604 263.547 60.8438 263.547C83.7687 263.547 86.6344 280.741 98.0969 283.606C105.739 285.517 112.425 282.651 118.156 275.009C114.335 290.293 104.783 297.934 89.5 297.934C66.575 297.934 63.7094 280.741 52.2469 277.875C44.6052 275.965 37.9187 278.83 32.1875 286.472Z" fill="#44A8B3"/>
<path d="M1014.54 213.605L994.354 203.889C993.214 203.339 991.932 203.158 990.685 203.37C989.437 203.582 988.287 204.177 987.393 205.072L921.33 265.3C920.528 266.027 920.049 267.043 919.996 268.124C919.944 269.205 920.323 270.263 921.05 271.064C921.138 271.159 921.225 271.25 921.32 271.334L926.713 276.234C927.418 276.875 928.325 277.25 929.277 277.292C930.229 277.334 931.166 277.042 931.925 276.465L1011.5 216.125C1012.1 215.669 1012.81 215.39 1013.57 215.319C1014.32 215.248 1015.07 215.388 1015.75 215.723C1016.42 216.058 1016.99 216.576 1017.39 217.217C1017.79 217.858 1018 218.598 1018 219.352V219.117C1018 217.966 1017.67 216.837 1017.06 215.862C1016.45 214.887 1015.57 214.104 1014.54 213.605Z" fill="#0065A9"/>
<path d="M1014.54 290.395L994.354 300.115C993.214 300.662 991.932 300.843 990.685 300.631C989.438 300.419 988.288 299.825 987.393 298.932L921.33 238.7C920.528 237.973 920.049 236.957 919.996 235.876C919.944 234.795 920.323 233.737 921.05 232.936C921.138 232.841 921.225 232.75 921.32 232.666L926.713 227.766C927.418 227.122 928.328 226.746 929.282 226.704C930.237 226.661 931.175 226.956 931.935 227.535L1011.5 287.875C1012.1 288.331 1012.81 288.61 1013.57 288.681C1014.32 288.752 1015.07 288.612 1015.75 288.277C1016.42 287.942 1016.99 287.424 1017.39 286.783C1017.79 286.142 1018 285.403 1018 284.648V284.9C1018 286.049 1017.67 287.173 1017.06 288.145C1016.44 289.117 1015.57 289.896 1014.54 290.395Z" fill="#007ACC"/>
<path d="M994.354 300.115C993.214 300.662 991.932 300.843 990.685 300.631C989.438 300.419 988.287 299.825 987.392 298.932C987.895 299.428 988.533 299.764 989.226 299.899C989.919 300.034 990.637 299.962 991.289 299.691C991.941 299.42 992.499 298.963 992.892 298.376C993.285 297.79 993.497 297.1 993.5 296.394V207.606C993.501 206.897 993.291 206.203 992.897 205.613C992.503 205.023 991.942 204.563 991.287 204.292C990.631 204.02 989.91 203.949 989.214 204.088C988.518 204.227 987.88 204.57 987.378 205.072C988.273 204.177 989.423 203.582 990.67 203.37C991.917 203.157 993.2 203.337 994.34 203.886L1014.52 213.588C1015.56 214.085 1016.44 214.866 1017.05 215.841C1017.67 216.817 1018 217.946 1018 219.1V284.9C1018 286.053 1017.67 287.182 1017.06 288.158C1016.45 289.134 1015.57 289.917 1014.53 290.416L994.354 300.115Z" fill="#1F9CF0"/>
<path d="M454.5 9.5H559.5V114.5H454.5V9.5Z" fill="#F5DE19"/>
<path d="M525.034 91.5312C525.928 93.3485 527.318 94.8759 529.043 95.9375C530.768 96.9991 532.758 97.5515 534.784 97.5313C538.871 97.5313 541.485 95.4875 541.485 92.6562C541.485 89.2812 538.8 88.0738 534.3 86.105L531.833 85.0475C524.708 82.0138 519.983 78.215 519.983 70.1825C519.983 62.7838 525.608 57.1475 534.431 57.1475C537.288 56.9412 540.142 57.5805 542.637 58.9856C545.132 60.3907 547.159 62.4994 548.464 65.0488L540.75 69.98C540.248 68.716 539.373 67.6345 538.242 66.879C537.11 66.1236 535.776 65.7298 534.416 65.75C533.823 65.6906 533.224 65.7555 532.657 65.9404C532.09 66.1254 531.568 66.4265 531.123 66.8244C530.679 67.2224 530.323 67.7085 530.077 68.2518C529.831 68.7951 529.701 69.3837 529.695 69.98C529.695 72.9388 531.529 74.1388 535.763 75.98L538.23 77.0375C546.615 80.6338 551.355 84.2975 551.355 92.5363C551.355 101.42 544.376 106.287 535.005 106.287C531.354 106.52 527.713 105.691 524.522 103.901C521.332 102.11 518.727 99.4342 517.024 96.1963L525.034 91.5312ZM490.178 92.3863C491.726 95.135 493.136 97.46 496.526 97.46C499.766 97.46 501.814 96.1925 501.814 91.2612V57.71H511.68V91.3925C511.68 101.607 505.68 106.257 496.946 106.257C493.859 106.426 490.793 105.657 488.151 104.051C485.51 102.444 483.416 100.076 482.145 97.2575L490.178 92.3863Z" fill="black"/>
<path d="M245.132 109.154L236.71 15.4375H329.29L320.856 109.139L282.944 119.562L245.132 109.154Z" fill="#1572B6"/>
<path d="M283 111.597L313.637 103.174L320.845 23.1019H283V111.597Z" fill="#33A9DC"/>
<path d="M283 57.054H298.338L299.395 45.2842H283V33.7896H312.062L311.785 36.8724L308.939 68.5487H283V57.054Z" fill="white"/>
<path d="M283.071 86.9045L283.019 86.9193L270.111 83.4609L269.286 74.2942H257.65L259.274 92.3413L283.015 98.8788L283.071 98.864V86.9045Z" fill="#EBEBEB"/>
<path d="M297.351 68.0615L295.956 83.4534L283.03 86.9119V98.8714L306.79 92.3412L306.966 90.4001L308.98 68.0615H297.351Z" fill="white"/>
<path d="M283.041 33.7896V45.2842H255.044L254.811 42.6997L254.283 36.8724L254.005 33.7896H283.041ZM283 57.054V68.5487H270.254L270.021 65.9642L269.496 60.1369L269.219 57.054H283Z" fill="#EBEBEB"/>
<path d="M22.1325 111.004L13.7062 16.5H106.294L97.8562 110.989L59.9437 121.5L22.1325 111.004Z" fill="#E44F26"/>
<path d="M60 113.468L90.6375 104.974L97.845 24.2288H60V113.468Z" fill="#F1662A"/>
<path d="M60 59.2762H44.6625L43.605 47.4075H60V35.8162H30.9375L31.215 38.9287L34.0613 70.8675H60V59.2762ZM60 89.3775L59.9475 89.3925L47.04 85.9087L46.215 76.665H34.5787L36.2025 94.86L59.9475 101.452L60 101.437V89.3775Z" fill="#EBEBEB"/>
<path d="M59.9587 59.2762V70.8675H74.2312L72.8887 85.9012L59.9587 89.3887V101.449L83.7225 94.86L83.895 92.9025L86.6175 62.3887L86.9025 59.2762H59.9587ZM59.9587 35.8162V47.4075H87.9562L88.1887 44.805L88.7175 38.9287L88.995 35.8162H59.9587Z" fill="white"/>
<path d="M744.365 312.745C742.801 312.471 741.181 311.729 740.263 310.908C739.639 310.253 739.283 309.389 739.265 308.485C739.265 307.566 739.734 306.276 740.476 304.99C740.926 304.266 741.279 303.486 741.53 302.665C741.688 302.099 742.018 301.18 742.273 300.595L742.723 299.523L742.839 292.356C742.899 288.393 743.015 284.721 743.113 284.151C743.368 282.509 743.795 280.908 744.361 279.348L744.793 278.313L744.166 277.941C743.6 277.589 743.131 277.101 741.275 274.893C738.991 272.196 735.984 270.711 731.724 270.205C730.336 270.07 728.93 269.969 727.524 269.913C721.273 269.62 717.699 268.311 714.478 265.146C712.074 262.784 710.825 260.028 710.319 255.966C709.636 250.476 708.875 247.664 707.469 245.38C707.122 244.816 706.723 244.286 706.276 243.798L705.71 243.231L704.461 244.034C703.779 244.484 702.819 245.05 702.35 245.305C700.786 246.164 699.301 247.12 697.876 248.155C694.381 250.694 690.571 253.878 688.483 255.966C687.545 256.904 687.058 257.312 686.84 257.275C685.415 257.061 686.506 250.889 688.831 246.239C691.801 240.243 696.8 234.715 702.583 230.984C707.33 227.916 715.006 223.698 718.558 222.213C724.865 219.576 733.029 216.723 738.616 215.2C739.79 214.866 740.51 214.574 740.998 214.244C742.093 213.483 743.165 213.111 744.395 213.093C745.43 213.074 745.528 213.055 746.525 212.388C747.699 211.626 748.048 211.585 749.221 211.998L749.983 212.271L750.92 211.626L751.858 211L753.204 211.019C754.239 211.038 754.708 211 755.158 210.805C755.724 210.55 755.743 210.513 755.9 209.575C756.253 207.543 756.29 206.526 756.076 205.296C755.803 203.676 755.765 197.388 756.039 196.154C756.331 194.826 756.526 194.553 757.524 194.065C759.009 193.341 760.123 193.128 762.68 193.128C765.804 193.128 767.386 193.559 768.56 194.691C769.614 195.708 769.79 198.089 769.243 203.676C768.909 206.898 768.871 207.798 768.969 209.905C769.006 211.251 769.104 212.523 769.145 212.699C769.224 213.033 769.303 213.051 770.435 213.07C771.549 213.089 771.744 213.149 772.798 213.696C773.814 214.225 774.575 214.87 774.733 215.339C774.751 215.436 774.928 215.436 775.239 215.339C775.843 215.163 776.371 215.358 776.803 215.886C777.058 216.22 777.211 216.276 777.8 216.276C778.603 216.276 778.895 216.471 779.559 217.45C779.869 217.889 780.295 218.234 780.789 218.448C781.884 218.995 783.369 220.518 783.935 221.729C784.813 223.525 784.989 225.614 784.441 227.489C784.246 228.194 784.246 228.213 784.655 228.895C785.514 230.361 785.829 232.158 785.476 233.68L785.281 234.58L785.866 235.165C788.776 238.075 788.345 242.823 784.794 247.06C784.397 247.544 784.062 248.076 783.796 248.643C783.114 250.458 782.33 251.729 781.318 252.783L780.283 253.836H779.229C778.175 253.836 776.69 253.484 775.79 253.015C775.419 252.82 775.4 252.82 775.479 253.053C775.715 253.911 776.3 257.406 776.495 259.341C776.806 262.311 776.709 266.628 776.3 268.484C776.001 269.859 775.501 271.182 774.815 272.41C774.425 273.036 774.406 273.171 774.481 273.933C774.598 275.005 774.346 276.805 773.915 277.994C773.386 279.381 773.191 280.026 773.075 280.728C772.978 281.331 772.978 281.331 773.409 281.331C773.975 281.331 774.286 281.665 774.286 282.329C774.286 282.621 774.031 284.204 773.72 285.824C772.861 290.376 772.801 290.883 772.801 295.296C772.783 299.849 772.783 299.808 773.818 300.49L776.143 301.994C778.143 303.321 780.285 304.422 782.529 305.275C785.791 306.565 786.241 306.895 786.241 307.99C786.241 308.478 786.144 308.654 785.735 309.044C784.486 310.255 782.023 310.529 777.061 310C774.483 309.758 771.896 309.635 769.306 309.629C762.47 309.531 761.473 309.295 760.576 307.596C760.07 306.621 760.168 305.35 760.869 303.261C761.18 302.343 761.454 301.405 761.69 300.449C762.159 298.184 761.848 295.488 760.753 292.443L759.815 289.844C758.896 287.208 758.39 282.381 758.938 281.29C759.035 281.076 759.211 281.035 759.68 281.054L760.265 281.114L760.753 280.098C761.124 279.295 761.533 278.77 762.646 277.656L764.071 276.231L763.993 275.313C763.933 274.435 762.781 270.175 762.624 270.194C762.564 270.194 762.253 270.625 761.9 271.169C761.041 272.459 759.148 274.45 758.071 275.174C757.603 275.485 757.213 275.856 757.213 275.976C757.194 276.505 756.744 277.54 756.196 278.26C755.668 278.965 755.63 279.081 755.709 279.704C755.844 280.623 755.551 283.57 755.203 285.115C754.886 286.262 754.454 287.374 753.913 288.434C752.566 291.228 751.55 293.725 751.295 294.88C751.111 295.992 750.993 297.114 750.943 298.24C750.883 299.568 750.748 300.858 750.65 301.131C750.515 301.503 750.515 301.795 750.631 302.361C750.729 302.77 750.789 303.689 750.766 304.413C750.748 305.41 750.826 306.055 751.119 307.225C751.625 309.216 751.723 310.469 751.49 311.211C751.333 311.68 751.179 311.856 750.65 312.111C749.476 312.715 746.158 313.049 744.361 312.738L744.365 312.745ZM749.109 311.144C749.791 310.949 750.38 310.364 750.38 309.835C750.38 309.599 750.185 308.916 749.949 308.313C749.48 307.161 748.678 304.113 748.678 303.606C748.678 303.351 748.696 303.333 749.086 303.546L749.518 303.783V303.235C749.455 302.73 749.343 302.233 749.184 301.75C748.813 300.636 748.775 300.618 746.409 300.479L744.808 300.4L744.223 300.966C743.901 301.297 743.619 301.665 743.383 302.061C743.128 302.568 743.03 303.333 743.188 303.505C743.225 303.565 743.619 303.505 744.046 303.408C744.3 303.332 744.562 303.287 744.826 303.273C744.826 303.291 744.395 303.644 743.851 304.015C741.508 305.774 740.686 306.846 740.686 308.215C740.686 309.64 742.033 310.754 744.144 311.088C745.588 311.301 748.4 311.361 749.105 311.148L749.109 311.144ZM780.886 308.819C781.471 308.114 781.393 307.394 780.65 306.573C780.219 306.141 779.731 305.77 779.184 305.478C778.636 305.185 778.089 304.851 777.541 304.503C776.551 303.861 775.534 303.261 774.493 302.706C773.593 302.219 772.715 301.709 771.856 301.165L771.504 300.891V295.521C771.504 290.23 771.485 290.151 771.211 290.23C769.843 290.601 767.578 290.778 764.709 290.718L761.604 290.68L762.054 291.775C762.894 293.845 763.325 296.62 763.325 299.804C763.325 300.996 763.246 301.424 762.954 302.264C762.796 302.673 762.661 303.085 762.523 303.494C762.463 303.67 762.68 303.805 763.479 304.041C764.064 304.218 764.923 304.394 765.414 304.45L766.314 304.548L766.216 305.448C766.119 306.464 766.235 307.536 766.49 307.87C766.648 308.065 767.233 308.144 769.948 308.26C771.999 308.358 774.226 308.571 775.981 308.826C777.504 309.063 779.146 309.258 779.634 309.258C780.455 309.276 780.534 309.239 780.883 308.826L780.886 308.819ZM749.619 299.68C749.698 299.62 749.814 298.566 749.855 297.318C750.013 293.823 750.148 293.313 751.906 289.368C753.35 286.146 754.115 283.139 754.055 281.009L754.018 279.738L753.47 280.266C752.338 281.399 753.118 279.621 754.468 278.039C755.484 276.828 755.836 276.164 755.99 275.091C756.069 274.66 756.226 274.446 756.89 273.94C759.373 272.064 761.287 269.535 762.418 266.635C762.691 265.93 763.393 263.53 763.981 261.303C765.076 257.181 765.661 255.404 766.19 254.643C766.385 254.35 766.464 254.29 766.426 254.485C766.143 255.532 765.921 256.595 765.763 257.669C765.605 258.625 765.313 260.5 765.118 261.809C764.746 264.486 764.356 266.204 763.828 267.531L763.475 268.431L764.413 270.854C765.388 273.333 765.838 275.133 765.916 276.869L765.976 277.844L765.215 278.001C764.21 278.179 763.314 278.74 762.714 279.565C762.05 280.521 761.679 281.305 761.855 281.478C761.934 281.556 762.89 281.733 763.985 281.868C765.684 282.063 766.329 282.063 768.575 281.928C769.55 281.89 770.51 281.793 771.466 281.654C771.68 281.575 771.898 281.148 772.246 280.034C773.049 277.476 773.203 276.576 773.105 274.78L773.026 273.198L773.435 272.669C774.391 271.458 775.134 269.271 775.445 266.71C775.816 263.586 775.134 257.043 773.863 251.418C773.259 248.74 773.004 247.139 773.004 245.969V244.934L772.048 245.031C768.609 245.403 764.45 245.305 761.911 244.776C760.524 244.503 757.029 243.468 756.268 243.134L755.664 242.86L755.585 243.543C755.525 243.914 755.469 244.285 755.39 244.675C755.274 245.084 755.311 245.181 756.035 245.886C756.935 246.805 757.209 247.274 757.209 247.896C757.209 248.286 756.995 248.601 755.9 249.734C755.115 250.572 754.244 251.324 753.301 251.98L752.03 252.839L751.483 254.733C749.529 261.666 749.158 267.974 750.448 272.485L750.759 273.618L750.133 274.398C747.789 277.345 746.401 279.591 746.188 280.844C746.063 281.461 745.919 282.073 745.756 282.681C745.25 284.616 744.856 287.448 744.684 290.515C744.564 293.083 744.395 295.648 744.178 298.21L744.08 298.971L745.055 299.264C745.603 299.44 746.424 299.635 746.893 299.714C747.77 299.849 749.394 299.811 749.645 299.676L749.619 299.68ZM768.583 288.936C770.105 288.839 771.493 288.603 771.766 288.37C771.883 288.291 772.021 287.883 772.059 287.47L772.156 286.728L770.945 287.001C769.989 287.196 769.033 287.313 768.073 287.391C765.766 287.489 763.445 287.429 761.158 287.196C760.396 287.08 760.396 287.08 760.629 288.074C760.824 288.816 760.865 288.854 762.856 288.993C764.184 289.109 766.04 289.09 768.579 288.933L768.583 288.936ZM767.311 285.539C769.303 285.363 771.785 284.935 772.273 284.68C772.43 284.601 772.565 284.309 772.625 283.975L772.801 282.94L772.899 282.453L772.411 282.55C770.244 283 768.601 283.135 765.32 283.135C762.118 283.135 761.746 283.116 760.906 282.824C760.583 282.688 760.24 282.608 759.89 282.588C759.755 282.666 759.733 283.78 759.853 284.56C759.931 285.029 760.01 285.108 760.479 285.243C761.964 285.651 764.465 285.749 767.315 285.516L767.311 285.539ZM731.064 267.921C736.063 266.478 742.606 262.236 747.958 256.926C749.698 255.186 749.911 254.954 750.144 254.174L750.455 253.176C750.493 253.098 750.181 252.963 749.773 252.865C748.7 252.61 747.879 251.988 747.879 251.421C747.879 251.088 747.684 250.758 747.118 250.15C746.199 249.115 745.966 248.665 745.869 247.671L745.79 246.869L744.695 246.089C744.069 245.639 741.883 244.428 739.558 243.258C737.787 242.394 736.054 241.456 734.364 240.445C732.41 239.136 731.101 237.573 730.359 235.72C730.224 235.349 730.048 235.038 729.988 235.038C729.83 235.038 725.435 239.275 723.56 241.266C718.933 246.149 715.749 250.386 713.735 254.313C713.229 255.288 712.681 256.443 712.524 256.87L712.231 257.65L712.584 258.959C712.798 259.664 713.248 260.815 713.6 261.498C714.83 263.92 716.296 265.383 718.719 266.575C721.318 267.865 723.62 268.315 727.468 268.255C729.538 268.236 730.145 268.176 731.06 267.903L731.064 267.921ZM691.61 250.791C694.891 247.881 699.421 244.698 704.971 241.398C708.605 239.23 722.649 232.199 729.114 229.326C730.288 228.798 731.341 228.31 731.458 228.254C731.574 228.175 731.908 227.335 732.219 226.398C733.588 222.063 734.27 221.204 736.749 220.638C737.06 220.559 737.139 220.461 737.139 220.15C737.139 219.584 737.529 218.275 737.863 217.69C738.118 217.24 738.118 217.221 737.9 217.281C737.765 217.319 736.944 217.555 736.085 217.81C724.171 221.249 713.761 225.816 704.776 231.52C695.188 237.614 689.66 244.919 688.059 253.668L687.943 254.313L689.116 253.161C689.743 252.516 690.875 251.463 691.618 250.818L691.61 250.791ZM779.99 252.453C780.946 251.965 782.431 249.719 782.979 247.941C783.136 247.315 783.448 246.73 783.898 246.243C785.341 244.641 786.534 241.731 786.553 239.74C786.553 236.635 784.794 235.443 782.236 236.77C781.903 236.928 781.633 237.044 781.591 237.006C781.456 236.871 782.176 236.166 783.058 235.619C784.209 234.858 784.426 234.408 784.426 232.788C784.443 231.478 784.054 230.196 783.313 229.116C782.96 228.588 782.825 228.239 782.881 228.021L783.234 226.713C783.721 224.973 783.545 222.981 782.784 221.714C781.651 219.801 780.264 218.864 778.329 218.706L777.196 218.628L777.86 219.37C779.833 221.5 780.789 224.174 780.399 226.461C780.204 227.635 780.028 227.868 778.895 228.318L778.231 228.591L778.31 229.491C778.445 230.958 778.194 232.03 777.256 234.003C776.788 235 776.435 235.896 776.476 235.994C776.593 236.328 777.883 236.95 778.899 237.205L779.896 237.441L779.27 237.655C778.449 237.91 778.273 238.281 778.273 239.628C778.273 240.858 778.449 241.368 779.345 242.714C779.754 243.299 780.028 243.906 780.069 244.255C780.148 244.803 780.129 244.84 779.679 244.998C779.169 245.141 778.644 245.226 778.115 245.253C776.278 245.369 776.143 245.429 775.321 246.209C774.579 246.914 774.56 246.951 774.56 247.731C774.56 248.804 774.969 250.975 775.224 251.268C775.558 251.62 777.41 252.539 778.134 252.674C778.758 252.83 779.418 252.754 779.99 252.46V252.453ZM752.938 250.99C754.13 250.053 755.068 249.115 755.593 248.313C755.926 247.825 755.945 247.728 755.788 247.315C755.514 246.689 753.718 245.069 752.72 244.581C752.055 244.283 751.352 244.08 750.631 243.978L749.401 243.82L748.64 242.864C747.058 240.91 746.18 239.388 744.928 236.436C743.833 233.935 742.876 232.473 741.354 231.025C740.728 230.44 740.281 229.953 740.319 229.953C740.398 229.953 741.14 230.324 741.999 230.774C743.424 231.535 743.6 231.595 744.245 231.498C746.57 231.224 748.621 228.55 749.364 224.8C749.578 223.746 750.009 222.67 750.459 222.025C750.478 222.006 751.378 222.591 752.431 223.353C755.109 225.246 755.694 225.539 757.216 225.599C758.214 225.636 758.78 225.561 760.576 225.13C764.405 224.193 768.545 223.821 771.065 224.155C772.49 224.35 774.541 224.976 776.064 225.696C777.568 226.401 777.86 226.439 778.348 226.008C778.756 225.655 778.756 225.599 778.756 224.29C778.738 222.355 778.033 220.266 776.96 219.018C776.413 218.373 774.871 217.319 773.345 216.516C772.802 216.228 772.262 215.936 771.725 215.639C771.001 215.208 770.184 215.268 767.956 215.853C765.376 216.516 764.694 216.516 761.746 215.755C759.245 215.129 759.091 215.11 756.628 215.5C755.319 215.695 752.038 215.579 750.943 215.286C750.395 215.129 749.848 214.975 749.323 214.78C748.366 214.409 746.705 214.349 745.201 214.623C742.213 215.151 739.948 216.771 739.126 218.976C738.695 220.09 738.755 220.619 739.321 220.968C740.221 221.534 741.41 223.079 741.41 223.683C741.41 223.72 741.118 223.469 740.784 223.116C739.944 222.239 739.183 221.845 738.283 221.845C737.7 221.861 737.134 222.04 736.648 222.36C736.161 222.681 735.774 223.131 735.53 223.66C735.267 224.35 735.046 225.055 734.866 225.771C734.319 227.763 733.831 228.82 732.796 230.226C731.878 231.498 731.743 232.064 732.073 233.489C732.894 237.081 734.319 238.529 740.274 241.908C743.398 243.685 744.999 244.683 746.173 245.56C747.073 246.224 747.091 246.265 747.013 246.771C746.836 247.945 747.579 249.213 749.045 250.248C749.416 250.503 749.649 250.776 749.649 250.971C749.649 251.324 750.646 251.811 751.366 251.811C751.775 251.811 752.09 251.635 752.93 250.99H752.938ZM777.02 244.405C779.285 244.484 779.401 244.308 778.194 242.901C776.923 241.435 776.574 240.246 777.043 238.938L777.238 238.431L776.435 238.041C776.161 237.906 775.888 237.768 775.614 237.67C775.479 238.199 775.34 238.705 775.224 239.234C774.931 240.426 774.579 243.513 774.56 244.821C774.56 244.938 774.755 244.9 775.089 244.686C775.558 244.413 775.794 244.375 777.024 244.413L777.02 244.405ZM769.423 244.289C770.791 244.21 772.198 244.113 772.569 244.053L773.251 243.955L773.33 241.709C773.446 238.506 773.915 236.613 775.303 233.583C776.278 231.434 776.709 229.559 776.495 228.153C776.416 227.549 776.379 227.508 775.558 227.155C774.054 226.558 772.488 226.131 770.889 225.884C769.348 225.67 764.814 225.786 763.115 226.12C762.41 226.236 761.124 226.51 760.265 226.724C758.135 227.211 757.003 227.155 755.383 226.45C753.781 225.745 752.765 225.104 751.809 224.204C751.048 223.499 750.969 223.461 750.774 223.698C750.616 223.874 750.538 224.403 750.481 225.535C750.421 227.275 750.148 228.19 749.386 229.42C749.217 229.673 749.073 229.942 748.955 230.223C748.955 230.283 749.54 230.965 750.264 231.708C752.765 234.306 753.995 234.97 755.968 234.831C756.613 234.771 757.063 234.794 757.063 234.869C757.063 235.026 755.791 236.02 755.266 236.294C755.011 236.429 754.955 236.568 754.993 236.86L755.304 238.911C755.48 240.085 755.615 240.629 755.791 240.786C756.26 241.176 758.683 242.429 760.205 243.051C762.196 243.854 763.291 244.146 764.814 244.281C766.689 244.439 766.726 244.439 769.423 244.281V244.289ZM753.271 242.14C753.309 242.08 753.174 240.948 752.919 239.639C752.608 237.861 752.431 237.216 752.236 237.04C752.101 236.924 751.378 236.414 750.654 235.889C749.703 235.205 748.802 234.454 747.958 233.643L746.611 232.315L745.888 232.686L745.126 233.095C745.19 233.4 745.295 233.695 745.438 233.973C745.651 234.441 746.083 235.593 746.394 236.53C747.215 238.971 747.86 240.145 749.48 242.271L750.084 243.074L751.235 243.25C751.88 243.348 752.525 243.486 752.701 243.543C752.975 243.659 753.013 243.603 753.091 242.976C753.129 242.703 753.189 242.41 753.268 242.136L753.271 242.14ZM778.018 217.844C779.015 217.746 779.191 217.608 778.76 217.161C778.486 216.888 777.86 216.869 777.354 217.101C777.02 217.259 776.945 217.218 776.416 216.651C775.869 216.048 775.831 216.025 775.145 216.104C774.519 216.183 774.421 216.164 774.343 215.909C774.099 215.49 773.795 215.108 773.443 214.776C772.999 214.272 772.444 213.878 771.823 213.625C770.611 213.156 769.929 213.216 768.774 213.861C765.433 215.676 765.571 215.658 762.346 214.836C759.339 214.075 757.093 213.295 756.369 212.804C755.765 212.395 754.475 211.945 753.399 211.806C752.596 211.69 752.09 211.866 751.329 212.489L750.92 212.823L751.291 213.468C751.798 214.368 751.741 214.424 750.98 213.76C750.159 213.078 749.184 212.609 748.558 212.586C748.108 212.586 746.78 213.171 746.623 213.426C746.563 213.505 746.975 213.603 747.523 213.64C748.089 213.7 748.869 213.895 749.398 214.109C750.766 214.694 751.468 214.889 752.716 215.009C754.085 215.144 756.564 214.99 756.856 214.754C757.014 214.619 757.441 214.596 758.341 214.675C759.534 214.754 760.021 214.87 762.853 215.631C764.495 216.081 765.646 216.04 767.6 215.515C768.5 215.26 769.633 215.009 770.101 214.949C770.904 214.87 771.058 214.911 772.31 215.478C774.301 216.378 775.359 216.944 775.944 217.469C776.529 217.975 776.608 217.975 778.014 217.859L778.018 217.844ZM766.884 214.428L768.076 213.801L768.039 212.59C768.02 211.75 767.979 210.929 767.941 210.111L767.844 208.863L766.651 209.781C765.946 210.329 765.264 210.738 764.971 210.798C764.113 210.955 759.875 210.798 759.481 210.584C758.957 210.196 758.466 209.765 758.015 209.294L756.92 208.18L756.901 208.844C756.901 209.196 756.864 209.8 756.785 210.171C756.688 210.876 756.688 210.895 757.449 211.851C757.858 212.38 758.191 212.849 758.191 212.905C758.191 213.276 763.835 215.035 765.106 215.054C765.515 215.054 766.025 214.878 766.884 214.428ZM764.619 209.991C766.025 209.718 766.708 208.701 767.236 206.125C767.784 203.35 768.058 198.996 767.803 197.14C767.566 195.46 765.691 194.718 762.118 194.834C759.89 194.913 758.971 195.126 758.21 195.771C757.741 196.161 757.741 196.203 757.528 198.055C757.138 201.61 757.723 206.669 758.739 208.563C759.226 209.481 759.658 209.811 760.554 209.969C761.57 210.145 763.738 210.145 764.615 209.988L764.619 209.991Z" fill="black"/>
<path d="M957.697 76.5627C961.569 76.1619 964.506 72.8242 964.373 68.8184C964.239 64.8131 960.901 61.6086 956.896 61.6086H956.629C952.49 61.7422 949.286 65.2135 949.419 69.3525C949.553 71.3553 950.354 73.091 951.555 74.2926C947.016 83.2385 940.073 89.7807 929.659 95.2549C922.583 98.9934 915.24 100.329 907.897 99.3943C901.889 98.593 897.216 95.923 894.278 91.5164C890.006 84.9742 889.606 77.8975 893.211 70.8213C895.748 65.7475 899.752 62.009 902.289 60.1398C901.755 58.4041 900.954 55.4668 900.554 53.3307C881.194 67.35 883.197 86.3094 889.072 95.2549C893.477 101.931 902.423 106.07 912.303 106.07C914.973 106.07 917.643 105.803 920.314 105.136C937.403 101.798 950.354 91.65 957.697 76.5627ZM981.195 60.0066C971.048 48.1234 956.095 41.5811 939.005 41.5811H936.869C935.668 39.1779 933.131 37.5754 930.327 37.5754H930.06C925.921 37.709 922.717 41.1803 922.85 45.3197C922.984 49.325 926.322 52.5295 930.327 52.5295H930.594C933.531 52.3959 936.068 50.5266 937.136 47.9898H939.539C949.686 47.9898 959.299 50.927 967.978 56.6684C974.653 61.0746 979.46 66.816 982.13 73.7586C984.4 79.3664 984.266 84.8406 981.863 89.5139C978.125 96.5902 971.85 100.462 963.572 100.462C958.231 100.462 953.158 98.8598 950.487 97.6582C949.019 98.9934 946.348 101.13 944.479 102.465C950.22 105.135 956.095 106.604 961.702 106.604C974.52 106.604 983.999 99.5275 987.604 92.4512C991.476 84.707 991.209 71.3553 981.195 60.0066ZM913.371 78.832C913.505 82.8377 916.842 86.0418 920.848 86.0418H921.115C925.254 85.9086 928.458 82.4369 928.324 78.2979C928.191 74.2922 924.853 71.0881 920.848 71.0881H920.581C920.314 71.0881 919.913 71.0881 919.646 71.2213C914.172 62.1422 911.902 52.2623 912.704 41.5807C913.237 33.5697 915.908 26.6266 920.581 20.8852C924.452 15.9451 931.929 13.5418 937.003 13.4086C951.155 13.1414 957.163 30.7656 957.564 37.8422C959.299 38.2426 962.236 39.1775 964.239 39.8451C962.637 18.2156 949.286 7 936.469 7C924.452 7 913.371 15.6787 908.965 28.4963C902.823 45.5865 906.829 62.009 914.305 74.9602C913.638 75.8947 913.237 77.3635 913.371 78.8324V78.832Z" fill="#764ABC"/>
<defs>
<clipPath id="clip0_2005_2507">
<rect width="105" height="105" fill="white" transform="translate(479 200)"/>
</clipPath>
<clipPath id="clip1_2005_2507">
<rect width="113" height="101" fill="white" transform="translate(673 9)"/>
</clipPath>
<clipPath id="clip2_2005_2507">
<rect width="117" height="87" fill="white" transform="translate(250 218)"/>
</clipPath>
<clipPath id="clip3_2005_2507">
<rect width="88" height="87" fill="white" transform="translate(1127)"/>
</clipPath>
</defs>
</svg>
