<svg width="120" height="120" viewBox="0 0 120 121" fill="none" xmlns="http://www.w3.org/2000/svg">
<g clip-path="url(#clip0_2242_294)">
<path d="M67.365 120.245C65.8013 119.971 64.1813 119.229 63.2625 118.408C62.6388 117.753 62.2829 116.889 62.265 115.985C62.265 115.066 62.7338 113.776 63.4763 112.49C63.9263 111.766 64.2788 110.986 64.53 110.165C64.6875 109.599 65.0175 108.68 65.2725 108.095L65.7225 107.023L65.8388 99.8563C65.8988 95.8925 66.015 92.2213 66.1125 91.6513C66.3675 90.0088 66.795 88.4075 67.3613 86.8475L67.7925 85.8125L67.1663 85.4413C66.6 85.0888 66.1313 84.6013 64.275 82.3925C61.9913 79.6963 58.9838 78.2113 54.7238 77.705C53.3363 77.57 51.93 77.4688 50.5238 77.4125C44.2725 77.12 40.6988 75.8113 37.4775 72.6463C35.0738 70.2838 33.825 67.5275 33.3188 63.4663C32.6363 57.9763 31.875 55.1638 30.4688 52.88C30.1222 52.316 29.7229 51.7861 29.2763 51.2975L28.71 50.7313L27.4613 51.5338C26.7788 51.9838 25.8188 52.55 25.35 52.805C23.7863 53.6638 22.3013 54.62 20.8763 55.655C17.3813 58.1938 13.5713 61.3775 11.4825 63.4663C10.545 64.4038 10.0575 64.8125 9.84001 64.775C8.41501 64.5613 9.50626 58.3888 11.8313 53.7388C14.8013 47.7425 19.8 42.215 25.5825 38.4838C30.33 35.4163 38.0063 31.1975 41.5575 29.7125C47.865 27.0763 56.0288 24.2225 61.6163 22.7C62.79 22.3663 63.51 22.0738 63.9975 21.7438C65.0925 20.9825 66.165 20.6113 67.395 20.5925C68.43 20.5738 68.5275 20.555 69.525 19.8875C70.6988 19.1263 71.0475 19.085 72.2213 19.4975L72.9825 19.7713L73.92 19.1263L74.8575 18.5L76.2038 18.5188C77.2388 18.5375 77.7075 18.5 78.1575 18.305C78.7238 18.05 78.7425 18.0125 78.9 17.075C79.2525 15.0425 79.29 14.0263 79.0763 12.7963C78.8025 11.1763 78.765 4.8875 79.0388 3.65375C79.3313 2.32625 79.5263 2.0525 80.5238 1.565C82.0088 0.841252 83.1225 0.627502 85.68 0.627502C88.8038 0.627502 90.3863 1.05875 91.56 2.19125C92.6138 3.2075 92.79 5.58875 92.2425 11.1763C91.9088 14.3975 91.8713 15.2975 91.9688 17.405C92.0063 18.7513 92.1038 20.0225 92.145 20.1988C92.2238 20.5325 92.3025 20.5513 93.435 20.57C94.5488 20.5888 94.7438 20.6488 95.7975 21.1963C96.8138 21.725 97.575 22.37 97.7325 22.8388C97.7513 22.9363 97.9275 22.9363 98.2388 22.8388C98.8425 22.6625 99.3713 22.8575 99.8025 23.3863C100.058 23.72 100.211 23.7763 100.8 23.7763C101.603 23.7763 101.895 23.9713 102.559 24.95C102.869 25.3893 103.295 25.7344 103.789 25.9475C104.884 26.495 106.369 28.0175 106.935 29.2288C107.813 31.025 107.989 33.1138 107.441 34.9888C107.246 35.6938 107.246 35.7125 107.655 36.395C108.514 37.8613 108.829 39.6575 108.476 41.18L108.281 42.08L108.866 42.665C111.776 45.575 111.345 50.3225 107.794 54.56C107.397 55.044 107.062 55.5756 106.796 56.1425C106.114 57.9575 105.33 59.2288 104.318 60.2825L103.283 61.3363H102.229C101.175 61.3363 99.69 60.9838 98.79 60.515C98.4188 60.32 98.4 60.32 98.4788 60.5525C98.715 61.4113 99.3 64.9063 99.495 66.8413C99.8063 69.8113 99.7088 74.1275 99.3 75.9838C99.0013 77.3586 98.5009 78.6816 97.815 79.91C97.425 80.5363 97.4063 80.6713 97.4813 81.4325C97.5975 82.505 97.3463 84.305 96.915 85.4938C96.3863 86.8813 96.1913 87.5263 96.075 88.2275C95.9775 88.8313 95.9775 88.8313 96.4088 88.8313C96.975 88.8313 97.2863 89.165 97.2863 89.8288C97.2863 90.1213 97.0313 91.7038 96.72 93.3238C95.8613 97.8763 95.8013 98.3825 95.8013 102.796C95.7825 107.349 95.7825 107.308 96.8175 107.99L99.1425 109.494C101.143 110.821 103.285 111.922 105.529 112.775C108.791 114.065 109.241 114.395 109.241 115.49C109.241 115.978 109.144 116.154 108.735 116.544C107.486 117.755 105.023 118.029 100.061 117.5C97.4832 117.258 94.8956 117.135 92.3063 117.129C85.47 117.031 84.4725 116.795 83.5763 115.096C83.07 114.121 83.1675 112.85 83.8688 110.761C84.18 109.843 84.4538 108.905 84.69 107.949C85.1588 105.684 84.8475 102.988 83.7525 99.9425L82.815 97.3438C81.8963 94.7075 81.39 89.8813 81.9375 88.79C82.035 88.5763 82.2113 88.535 82.68 88.5538L83.265 88.6138L83.7525 87.5975C84.1238 86.795 84.5325 86.27 85.6463 85.1563L87.0713 83.7313L86.9925 82.8125C86.9325 81.935 85.7813 77.675 85.6238 77.6938C85.5638 77.6938 85.2525 78.125 84.9 78.6688C84.0413 79.9588 82.1475 81.95 81.0713 82.6738C80.6025 82.985 80.2125 83.3563 80.2125 83.4763C80.1938 84.005 79.7438 85.04 79.1963 85.76C78.6675 86.465 78.63 86.5813 78.7088 87.2038C78.8438 88.1225 78.5513 91.07 78.2025 92.615C77.8864 93.7622 77.4541 94.8742 76.9125 95.9338C75.5663 98.7275 74.55 101.225 74.295 102.38C74.1108 103.492 73.9931 104.614 73.9425 105.74C73.8825 107.068 73.7475 108.358 73.65 108.631C73.515 109.003 73.515 109.295 73.6313 109.861C73.7288 110.27 73.7888 111.189 73.7663 111.913C73.7475 112.91 73.8263 113.555 74.1188 114.725C74.625 116.716 74.7225 117.969 74.49 118.711C74.3325 119.18 74.1788 119.356 73.65 119.611C72.4763 120.215 69.1575 120.549 67.3613 120.238L67.365 120.245ZM72.1088 118.644C72.7913 118.449 73.38 117.864 73.38 117.335C73.38 117.099 73.185 116.416 72.9488 115.813C72.48 114.661 71.6775 111.613 71.6775 111.106C71.6775 110.851 71.6963 110.833 72.0863 111.046L72.5175 111.283V110.735C72.4549 110.23 72.3432 109.733 72.1838 109.25C71.8125 108.136 71.775 108.118 69.4088 107.979L67.8075 107.9L67.2225 108.466C66.9008 108.797 66.6189 109.165 66.3825 109.561C66.1275 110.068 66.03 110.833 66.1875 111.005C66.225 111.065 66.6188 111.005 67.0463 110.908C67.3 110.832 67.5619 110.787 67.8263 110.773C67.8263 110.791 67.395 111.144 66.8513 111.515C64.5075 113.274 63.6863 114.346 63.6863 115.715C63.6863 117.14 65.0325 118.254 67.1438 118.588C68.5875 118.801 71.4 118.861 72.105 118.648L72.1088 118.644ZM103.886 116.319C104.471 115.614 104.393 114.894 103.65 114.073C103.219 113.641 102.731 113.27 102.184 112.978C101.636 112.685 101.089 112.351 100.541 112.003C99.551 111.361 98.5338 110.761 97.4925 110.206C96.5925 109.719 95.715 109.209 94.8563 108.665L94.5038 108.391V103.021C94.5038 97.73 94.485 97.6513 94.2113 97.73C92.8425 98.1013 90.5775 98.2775 87.7088 98.2175L84.6038 98.18L85.0538 99.275C85.8938 101.345 86.325 104.12 86.325 107.304C86.325 108.496 86.2463 108.924 85.9538 109.764C85.7963 110.173 85.6613 110.585 85.5225 110.994C85.4625 111.17 85.68 111.305 86.4788 111.541C87.0638 111.718 87.9225 111.894 88.4138 111.95L89.3138 112.048L89.2163 112.948C89.1188 113.964 89.235 115.036 89.49 115.37C89.6475 115.565 90.2325 115.644 92.9475 115.76C94.9988 115.858 97.2263 116.071 98.9813 116.326C100.504 116.563 102.146 116.758 102.634 116.758C103.455 116.776 103.534 116.739 103.883 116.326L103.886 116.319ZM72.6188 107.18C72.6975 107.12 72.8138 106.066 72.855 104.818C73.0125 101.323 73.1475 100.813 74.9063 96.8675C76.35 93.6463 77.115 90.6388 77.055 88.5088L77.0175 87.2375L76.47 87.7663C75.3375 88.8988 76.1175 87.1213 77.4675 85.5388C78.4838 84.3275 78.8363 83.6638 78.99 82.5913C79.0688 82.16 79.2263 81.9463 79.89 81.44C82.3735 79.5639 84.2871 77.0349 85.4175 74.135C85.6913 73.43 86.3925 71.03 86.9813 68.8025C88.0763 64.6813 88.6613 62.9038 89.19 62.1425C89.385 61.85 89.4638 61.79 89.4263 61.985C89.143 63.0324 88.9214 64.0955 88.7625 65.1688C88.605 66.125 88.3125 68 88.1175 69.3088C87.7463 71.9863 87.3563 73.7038 86.8275 75.0313L86.475 75.9313L87.4125 78.3538C88.3875 80.8325 88.8375 82.6325 88.9163 84.3688L88.9763 85.3438L88.215 85.5013C87.2103 85.6791 86.3137 86.2396 85.7138 87.065C85.05 88.0213 84.6788 88.805 84.855 88.9775C84.9338 89.0563 85.89 89.2325 86.985 89.3675C88.6838 89.5625 89.3288 89.5625 91.575 89.4275C92.55 89.39 93.51 89.2925 94.4663 89.1538C94.68 89.075 94.8975 88.6475 95.2463 87.5338C96.0488 84.9763 96.2025 84.0763 96.105 82.28L96.0263 80.6975L96.435 80.1688C97.3913 78.9575 98.1338 76.7713 98.445 74.21C98.8163 71.0863 98.1338 64.5425 96.8625 58.9175C96.2588 56.24 96.0038 54.6388 96.0038 53.4688V52.4338L95.0475 52.5313C91.6088 52.9025 87.45 52.805 84.9113 52.2763C83.5238 52.0025 80.0288 50.9675 79.2675 50.6338L78.6638 50.36L78.585 51.0425C78.525 51.4138 78.4688 51.785 78.39 52.175C78.2738 52.5838 78.3113 52.6813 79.035 53.3863C79.935 54.305 80.2088 54.7738 80.2088 55.3963C80.2088 55.7863 79.995 56.1013 78.9 57.2338C78.1149 58.0715 77.2439 58.8244 76.3013 59.48L75.03 60.3388L74.4825 62.2325C72.5288 69.1663 72.1575 75.4738 73.4475 79.985L73.7588 81.1175L73.1325 81.8975C70.7888 84.845 69.4013 87.0913 69.1875 88.3438C69.0626 88.9605 68.9187 89.5733 68.7563 90.1813C68.25 92.1163 67.8563 94.9475 67.6838 98.015C67.5636 100.583 67.3948 103.148 67.1775 105.71L67.08 106.471L68.055 106.764C68.6025 106.94 69.4238 107.135 69.8925 107.214C70.77 107.349 72.3938 107.311 72.645 107.176L72.6188 107.18ZM91.5825 96.4363C93.105 96.3388 94.4925 96.1025 94.7663 95.87C94.8825 95.7913 95.0213 95.3825 95.0588 94.97L95.1563 94.2275L93.945 94.5013C92.9888 94.6963 92.0325 94.8125 91.0725 94.8913C88.7663 94.9888 86.445 94.9288 84.1575 94.6963C83.3963 94.58 83.3963 94.58 83.6288 95.5738C83.8238 96.3163 83.865 96.3538 85.8563 96.4925C87.1838 96.6088 89.04 96.59 91.5788 96.4325L91.5825 96.4363ZM90.3113 93.0388C92.3025 92.8625 94.785 92.435 95.2725 92.18C95.43 92.1013 95.565 91.8088 95.625 91.475L95.8013 90.44L95.8988 89.9525L95.4113 90.05C93.2438 90.5 91.6013 90.635 88.32 90.635C85.1175 90.635 84.7463 90.6163 83.9063 90.3238C83.5834 90.1877 83.2397 90.1078 82.89 90.0875C82.755 90.1663 82.7325 91.28 82.8525 92.06C82.9313 92.5288 83.01 92.6075 83.4788 92.7425C84.9638 93.1513 87.465 93.2488 90.315 93.0163L90.3113 93.0388ZM54.0638 75.4213C59.0625 73.9775 65.6063 69.7363 70.9575 64.4263C72.6975 62.6863 72.9113 62.4538 73.1438 61.6738L73.455 60.6763C73.4925 60.5975 73.1813 60.4625 72.7725 60.365C71.7 60.11 70.8788 59.4875 70.8788 58.9213C70.8788 58.5875 70.6838 58.2575 70.1175 57.65C69.1988 56.615 68.9663 56.165 68.8688 55.1713L68.79 54.3688L67.695 53.5888C67.0688 53.1388 64.8825 51.9275 62.5575 50.7575C60.7873 49.8939 59.0545 48.9555 57.3638 47.945C55.41 46.6363 54.1013 45.0725 53.3588 43.22C53.2238 42.8488 53.0475 42.5375 52.9875 42.5375C52.83 42.5375 48.435 46.775 46.56 48.7663C41.9325 53.6488 38.7488 57.8863 36.735 61.8125C36.2288 62.7875 35.6813 63.9425 35.5238 64.37L35.2313 65.15L35.5838 66.4588C35.7975 67.1638 36.2475 68.315 36.6 68.9975C37.83 71.42 39.2963 72.8825 41.7188 74.075C44.3175 75.365 46.62 75.815 50.4675 75.755C52.5375 75.7363 53.145 75.6763 54.06 75.4025L54.0638 75.4213ZM14.61 58.2913C17.8913 55.3813 22.4213 52.1975 27.9713 48.8975C31.605 46.73 45.6488 39.6988 52.1138 36.8263C53.2875 36.2975 54.3413 35.81 54.4575 35.7538C54.5738 35.675 54.9075 34.835 55.2188 33.8975C56.5875 29.5625 57.27 28.7038 59.7488 28.1375C60.06 28.0588 60.1388 27.9613 60.1388 27.65C60.1388 27.0838 60.5288 25.775 60.8625 25.19C61.1175 24.74 61.1175 24.7213 60.9 24.7813C60.765 24.8188 59.9438 25.055 59.085 25.31C47.1713 28.7488 36.7613 33.3163 27.7763 39.02C18.1875 45.1138 12.66 52.4188 11.0588 61.1675L10.9425 61.8125L12.1163 60.6613C12.7425 60.0163 13.875 58.9625 14.6175 58.3175L14.61 58.2913ZM102.99 59.9525C103.946 59.465 105.431 57.2188 105.979 55.4413C106.136 54.815 106.448 54.23 106.898 53.7425C108.341 52.1413 109.534 49.2313 109.553 47.24C109.553 44.135 107.794 42.9425 105.236 44.27C104.903 44.4275 104.633 44.5438 104.591 44.5063C104.456 44.3713 105.176 43.6663 106.058 43.1188C107.209 42.3575 107.426 41.9075 107.426 40.2875C107.443 38.9781 107.054 37.6955 106.313 36.6163C105.96 36.0875 105.825 35.7388 105.881 35.5213L106.234 34.2125C106.721 32.4725 106.545 30.4813 105.784 29.2138C104.651 27.3013 103.264 26.3638 101.329 26.2063L100.196 26.1275L100.86 26.87C102.833 29 103.789 31.6738 103.399 33.9613C103.204 35.135 103.028 35.3675 101.895 35.8175L101.231 36.0913L101.31 36.9913C101.445 38.4575 101.194 39.53 100.256 41.5025C99.7875 42.5 99.435 43.3963 99.4763 43.4938C99.5925 43.8275 100.883 44.45 101.899 44.705L102.896 44.9413L102.27 45.155C101.449 45.41 101.273 45.7813 101.273 47.1275C101.273 48.3575 101.449 48.8675 102.345 50.2138C102.754 50.7988 103.028 51.4063 103.069 51.755C103.148 52.3025 103.129 52.34 102.679 52.4975C102.169 52.6407 101.644 52.7262 101.115 52.7525C99.2775 52.8688 99.1425 52.9288 98.3213 53.7088C97.5788 54.4138 97.56 54.4513 97.56 55.2313C97.56 56.3038 97.9688 58.475 98.2238 58.7675C98.5575 59.12 100.41 60.0388 101.134 60.1738C101.758 60.3305 102.418 60.2545 102.99 59.96V59.9525ZM75.9375 58.49C77.13 57.5525 78.0675 56.615 78.5925 55.8125C78.9263 55.325 78.945 55.2275 78.7875 54.815C78.5138 54.1888 76.7175 52.5688 75.72 52.0813C75.0554 51.7835 74.3523 51.5802 73.6313 51.4775L72.4013 51.32L71.64 50.3638C70.0575 48.41 69.18 46.8875 67.9275 43.9363C66.8325 41.435 65.8763 39.9725 64.3538 38.525C63.7275 37.94 63.2813 37.4525 63.3188 37.4525C63.3975 37.4525 64.14 37.8238 64.9988 38.2738C66.4238 39.035 66.6 39.095 67.245 38.9975C69.57 38.7238 71.6213 36.05 72.3638 32.3C72.5775 31.2463 73.0088 30.17 73.4588 29.525C73.4775 29.5063 74.3775 30.0913 75.4313 30.8525C78.1088 32.7463 78.6938 33.0388 80.2163 33.0988C81.2138 33.1363 81.78 33.0613 83.5763 32.63C87.405 31.6925 91.545 31.3213 94.065 31.655C95.49 31.85 97.5413 32.4763 99.0638 33.1963C100.568 33.9013 100.86 33.9388 101.348 33.5075C101.756 33.155 101.756 33.0988 101.756 31.79C101.738 29.855 101.033 27.7663 99.96 26.5175C99.4125 25.8725 97.8713 24.8188 96.345 24.0163C95.8025 23.7285 95.2625 23.436 94.725 23.1388C94.0013 22.7075 93.1838 22.7675 90.9563 23.3525C88.3763 24.0163 87.6938 24.0163 84.7463 23.255C82.245 22.6288 82.0913 22.61 79.6275 23C78.3188 23.195 75.0375 23.0788 73.9425 22.7863C73.395 22.6288 72.8475 22.475 72.3225 22.28C71.3663 21.9088 69.705 21.8488 68.2013 22.1225C65.2125 22.6513 62.9475 24.2713 62.1263 26.4763C61.695 27.59 61.755 28.1188 62.3213 28.4675C63.2213 29.0338 64.41 30.5788 64.41 31.1825C64.41 31.22 64.1175 30.9688 63.7838 30.6163C62.9438 29.7388 62.1825 29.345 61.2825 29.345C60.7002 29.3612 60.134 29.5397 59.6477 29.8603C59.1613 30.181 58.7743 30.6311 58.53 31.16C58.2672 31.85 58.0456 32.555 57.8663 33.2713C57.3188 35.2625 56.8313 36.32 55.7963 37.7263C54.8775 38.9975 54.7425 39.5638 55.0725 40.9888C55.8938 44.5813 57.3188 46.0288 63.2738 49.4075C66.3975 51.185 67.9988 52.1825 69.1725 53.06C70.0725 53.7238 70.0913 53.765 70.0125 54.2713C69.8363 55.445 70.5788 56.7125 72.045 57.7475C72.4163 58.0025 72.6488 58.2763 72.6488 58.4713C72.6488 58.8238 73.6463 59.3113 74.3663 59.3113C74.775 59.3113 75.09 59.135 75.93 58.49H75.9375ZM100.02 51.905C102.285 51.9838 102.401 51.8075 101.194 50.4013C99.9225 48.935 99.5738 47.7463 100.043 46.4375L100.238 45.9313L99.435 45.5413C99.1613 45.4063 98.8875 45.2675 98.6138 45.17C98.4788 45.6988 98.34 46.205 98.2238 46.7338C97.9313 47.9263 97.5788 51.0125 97.56 52.3213C97.56 52.4375 97.755 52.4 98.0888 52.1863C98.5575 51.9125 98.7938 51.875 100.024 51.9125L100.02 51.905ZM92.4225 51.7888C93.7913 51.71 95.1975 51.6125 95.5688 51.5525L96.2513 51.455L96.33 49.2088C96.4463 46.0063 96.915 44.1125 98.3025 41.0825C99.2775 38.9338 99.7088 37.0588 99.495 35.6525C99.4163 35.0488 99.3788 35.0075 98.5575 34.655C97.0537 34.0579 95.4877 33.6315 93.8888 33.3838C92.3475 33.17 87.8138 33.2863 86.115 33.62C85.41 33.7363 84.1238 34.01 83.265 34.2238C81.135 34.7113 80.0025 34.655 78.3825 33.95C76.7813 33.245 75.765 32.6038 74.8088 31.7038C74.0475 30.9988 73.9688 30.9613 73.7738 31.1975C73.6163 31.3738 73.5375 31.9025 73.4813 33.035C73.4213 34.775 73.1475 35.69 72.3863 36.92C72.2171 37.1731 72.0727 37.4418 71.955 37.7225C71.955 37.7825 72.54 38.465 73.2638 39.2075C75.765 41.8063 76.995 42.47 78.9675 42.3313C79.6125 42.2713 80.0625 42.2938 80.0625 42.3688C80.0625 42.5263 78.7913 43.52 78.2663 43.7938C78.0113 43.9288 77.955 44.0675 77.9925 44.36L78.3038 46.4113C78.48 47.585 78.615 48.1288 78.7913 48.2863C79.26 48.6763 81.6825 49.9288 83.205 50.5513C85.1963 51.3538 86.2913 51.6463 87.8138 51.7813C89.6888 51.9388 89.7263 51.9388 92.4225 51.7813V51.7888ZM76.2713 49.64C76.3088 49.58 76.1738 48.4475 75.9188 47.1388C75.6075 45.3613 75.4313 44.7163 75.2363 44.54C75.1013 44.4238 74.3775 43.9138 73.6538 43.3888C72.7028 42.705 71.8018 41.9543 70.9575 41.1425L69.6113 39.815L68.8875 40.1863L68.1263 40.595C68.1903 40.9001 68.295 41.1952 68.4375 41.4725C68.6513 41.9413 69.0825 43.0925 69.3938 44.03C70.215 46.4713 70.86 47.645 72.48 49.7713L73.0838 50.5738L74.235 50.75C74.88 50.8475 75.525 50.9863 75.7013 51.0425C75.975 51.1588 76.0125 51.1025 76.0913 50.4763C76.1288 50.2025 76.1888 49.91 76.2675 49.6363L76.2713 49.64ZM101.018 25.3438C102.015 25.2463 102.191 25.1075 101.76 24.6613C101.486 24.3875 100.86 24.3688 100.354 24.6013C100.02 24.7588 99.945 24.7175 99.4163 24.1513C98.8688 23.5475 98.8313 23.525 98.145 23.6038C97.5188 23.6825 97.4213 23.6638 97.3425 23.4088C97.0986 22.9899 96.7955 22.6084 96.4425 22.2763C95.999 21.7722 95.4444 21.3781 94.8225 21.125C93.6113 20.6563 92.9288 20.7163 91.7738 21.3613C88.4325 23.1763 88.5713 23.1575 85.3463 22.3363C82.3388 21.575 80.0925 20.795 79.3688 20.3038C78.765 19.895 77.475 19.445 76.3988 19.3063C75.5963 19.19 75.09 19.3663 74.3288 19.9888L73.92 20.3225L74.2913 20.9675C74.7975 21.8675 74.7413 21.9238 73.98 21.26C73.1588 20.5775 72.1838 20.1088 71.5575 20.0863C71.1075 20.0863 69.78 20.6713 69.6225 20.9263C69.5625 21.005 69.975 21.1025 70.5225 21.14C71.0888 21.2 71.8688 21.395 72.3975 21.6088C73.7663 22.1938 74.4675 22.3888 75.7163 22.5088C77.085 22.6438 79.5638 22.49 79.8563 22.2538C80.0138 22.1188 80.4413 22.0963 81.3413 22.175C82.5338 22.2538 83.0213 22.37 85.8525 23.1313C87.495 23.5813 88.6463 23.54 90.6 23.015C91.5 22.76 92.6325 22.5088 93.1013 22.4488C93.9038 22.37 94.0575 22.4113 95.31 22.9775C97.3013 23.8775 98.3588 24.4438 98.9438 24.9688C99.5288 25.475 99.6075 25.475 101.014 25.3588L101.018 25.3438ZM89.8838 21.9275L91.0763 21.3013L91.0388 20.09C91.02 19.25 90.9788 18.4288 90.9413 17.6113L90.8438 16.3625L89.6513 17.2813C88.9463 17.8288 88.2638 18.2375 87.9713 18.2975C87.1125 18.455 82.875 18.2975 82.4813 18.0838C81.9567 17.6963 81.4662 17.2647 81.015 16.7938L79.92 15.68L79.9013 16.3438C79.9013 16.6963 79.8638 17.3 79.785 17.6713C79.6875 18.3763 79.6875 18.395 80.4488 19.3513C80.8575 19.88 81.1913 20.3488 81.1913 20.405C81.1913 20.7763 86.835 22.535 88.1063 22.5538C88.515 22.5538 89.025 22.3775 89.8838 21.9275ZM87.6188 17.4913C89.025 17.2175 89.7075 16.2013 90.2363 13.625C90.7838 10.85 91.0575 6.49625 90.8025 4.64C90.5663 2.96 88.6913 2.2175 85.1175 2.33375C82.89 2.4125 81.9713 2.62625 81.21 3.27125C80.7413 3.66125 80.7413 3.7025 80.5275 5.555C80.1375 9.11 80.7225 14.1688 81.7388 16.0625C82.2263 16.9813 82.6575 17.3113 83.5538 17.4688C84.57 17.645 86.7375 17.645 87.615 17.4875L87.6188 17.4913Z" fill="black"/>
</g>
<defs>
<clipPath id="clip0_2242_294">
<rect width="120" height="120" fill="white" transform="translate(0 0.5)"/>
</clipPath>
</defs>
</svg>
