<svg width="120" height="120" viewBox="0 0 112 113" fill="none" xmlns="http://www.w3.org/2000/svg">
<path d="M101.535 18.105L81.354 8.38899C80.2143 7.83948 78.9319 7.65814 77.6846 7.87011C76.4372 8.08208 75.2867 8.67686 74.3925 9.57199L8.33001 69.8C7.52848 70.5273 7.04868 71.5432 6.99617 72.6243C6.94366 73.7053 7.32274 74.7629 8.05001 75.5645C8.13751 75.659 8.22501 75.75 8.31951 75.834L13.713 80.734C14.4178 81.3754 15.325 81.7497 16.277 81.7919C17.229 81.8341 18.1658 81.5416 18.9245 80.965L98.497 20.625C99.098 20.1689 99.8145 19.8897 100.566 19.8186C101.317 19.7476 102.073 19.8877 102.749 20.2231C103.424 20.5585 103.993 21.0758 104.391 21.717C104.789 22.3581 105 23.0975 105 23.852V23.6175C105 22.4656 104.675 21.3372 104.062 20.362C103.449 19.3868 102.573 18.6045 101.535 18.105Z" fill="#403930"/>
<path d="M101.535 94.895L81.354 104.615C80.214 105.162 78.932 105.343 77.685 105.131C76.438 104.919 75.2875 104.325 74.3925 103.432L8.33001 43.2C7.52848 42.4727 7.04868 41.4568 6.99617 40.3758C6.94366 39.2947 7.32274 38.2371 8.05001 37.4355C8.13751 37.341 8.22501 37.25 8.31951 37.166L13.713 32.266C14.4185 31.6219 15.3278 31.2459 16.2821 31.2037C17.2365 31.1615 18.1754 31.4557 18.935 32.035L98.497 92.375C99.098 92.8311 99.8145 93.1104 100.566 93.1814C101.317 93.2524 102.073 93.1123 102.749 92.7769C103.424 92.4415 103.993 91.9242 104.391 91.283C104.789 90.6419 105 89.9025 105 89.148V89.4C104.996 90.5488 104.669 91.6733 104.057 92.6451C103.444 93.6168 102.57 94.3965 101.535 94.895Z" fill="#1572B6"/>
<path d="M81.354 104.615C80.214 105.162 78.9319 105.343 77.6849 105.131C76.4379 104.919 75.2875 104.325 74.3925 103.432C74.8951 103.928 75.5329 104.264 76.2261 104.399C76.9192 104.534 77.6368 104.462 78.289 104.191C78.9411 103.92 79.4988 103.463 79.8921 102.876C80.2854 102.29 80.4969 101.6 80.5 100.894V12.106C80.5006 11.3965 80.2906 10.7028 79.8966 10.1128C79.5026 9.52274 78.9423 9.06291 78.2868 8.79155C77.6312 8.52019 76.9099 8.4495 76.2141 8.58843C75.5184 8.72737 74.8795 9.06968 74.3785 9.572C75.2728 8.6772 76.4231 8.08239 77.6702 7.86983C78.9174 7.65727 80.1997 7.83747 81.34 8.3855L101.517 18.0875C102.559 18.5845 103.438 19.3658 104.054 20.3412C104.67 21.3165 104.998 22.4463 105 23.6V89.4C105 90.5528 104.675 91.6823 104.061 92.6582C103.447 93.6341 102.571 94.4168 101.531 94.916L81.354 104.615Z" fill="#1F9CF0"/>
</svg>
