<svg width="120" height="120" viewBox="0 0 89 88" fill="none" xmlns="http://www.w3.org/2000/svg">
<g clip-path="url(#clip0_2242_284)">
<path d="M0.91803 76.2821C0.91803 82.4781 5.99831 87.5 12.2649 87.5H77.5708C83.8384 87.5 88.918 82.4774 88.918 76.2821V11.7182C88.918 5.52187 83.8377 0.5 77.5712 0.5H12.2652C5.99762 0.5 0.91803 5.52255 0.91803 11.7179V76.2818V76.2821Z" fill="#563D7C"/>
<path d="M37.4098 38.9832V26.6629H48.3792C49.4242 26.6629 50.4314 26.7489 51.4015 26.9212C52.3715 27.0931 53.2299 27.4003 53.9762 27.8431C54.7221 28.286 55.3192 28.9007 55.7671 29.6875C56.2147 30.4746 56.4388 31.4829 56.4388 32.7121C56.4388 34.9255 55.7671 36.5241 54.4237 37.5076C53.0807 38.4915 51.3643 38.9832 49.2747 38.9832H37.4098ZM25.6938 17.6621V70.3379H51.5135C53.9016 70.3379 56.2274 70.0429 58.491 69.4526C60.7546 68.8623 62.7693 67.9525 64.5355 66.723C66.3013 65.4934 67.7069 63.907 68.7516 61.9645C69.7966 60.0216 70.3187 57.7222 70.3187 55.0663C70.3187 51.7709 69.5102 48.9553 67.8936 46.6192C66.2766 44.2828 63.8263 42.6474 60.5428 41.7129C62.9308 40.5819 64.7345 39.1307 65.9534 37.3601C67.172 35.5895 67.7815 33.3765 67.7815 30.7203C67.7815 28.2612 67.3711 26.1956 66.5502 24.5232C65.7293 22.8512 64.5726 21.5108 63.08 20.5025C61.5878 19.4942 59.7969 18.7686 57.7072 18.3262C55.6179 17.8833 53.3045 17.6621 50.7673 17.6621H25.6938ZM37.4098 61.3371V46.8771H50.1702C52.7074 46.8771 54.7472 47.4548 56.2896 48.611C57.8317 49.7668 58.603 51.6971 58.603 54.4023C58.603 55.7797 58.3665 56.9107 57.8939 57.796C57.4212 58.6813 56.787 59.3823 55.9909 59.8986C55.1951 60.4151 54.2745 60.7839 53.2299 61.0054C52.1849 61.2263 51.0907 61.3371 49.9464 61.3371H37.4098Z" fill="white"/>
</g>
<defs>
<clipPath id="clip0_2242_284">
<rect width="88" height="87" fill="white" transform="translate(0.91803 0.2)"/>
</clipPath>
</defs>
</svg>
